<svg width="400" height="109" viewBox="0 0 400 109" fill="none" xmlns="http://www.w3.org/2000/svg">
<g clip-path="url(#clip0_229_197)">
<g clip-path="url(#clip1_229_197)">
<path d="M55.0012 101.177C48.984 102.234 42.8609 102.551 36.527 103.395L17.2074 46.787V105.825C11.1902 106.458 5.70078 107.303 0 108.148V0H16.0469L38.0047 61.3623V0H55.0012V101.177ZM88.2555 39.6051C94.8012 39.6051 104.83 39.2881 110.847 39.2881V56.1859C103.352 56.1859 94.5898 56.1859 88.2555 56.5028V81.6393C98.1793 81.0058 108.103 80.1601 118.131 79.8432V96.1067L71.3641 99.804V0H118.131V16.8982H88.2555V39.6051ZM180.945 16.8986H163.42V94.6299C157.72 94.6299 152.019 94.6299 146.53 94.8406V16.8986H129.006V0H180.945L180.945 16.8986ZM208.392 38.4436H231.512V55.3414H208.392V93.6795H191.817V0H239.007V16.8982H208.392V38.4436ZM266.455 78.8932C276.062 79.1038 285.774 79.8444 295.17 80.3715V97.0587C280.074 96.1075 264.977 95.1583 249.564 94.8406V0H266.455V78.8932ZM309.421 98.2205C314.805 98.5378 320.506 98.8548 325.996 99.4874V0H309.421V98.2205ZM400 0L378.569 51.4339L400 108.148C393.665 107.303 387.331 106.141 380.997 105.085L368.857 73.8242L356.507 102.551C350.382 101.494 344.471 101.177 338.349 100.332L360.096 50.7996L340.459 0H358.616L369.701 28.4101L381.525 0H400Z" fill="#D81F26"/>
</g>
</g>
<defs>
<clipPath id="clip0_229_197">
<rect width="400" height="109" fill="white"/>
</clipPath>
<clipPath id="clip1_229_197">
<rect width="400" height="108.148" fill="white"/>
</clipPath>
</defs>
</svg>
